{
    "asset" : {
        "generator" : "Khronos glTF Blender I/O v1.7.33",
        "version" : "2.0"
    },
    "scene" : 0,
    "scenes" : [
        {
            "name" : "Scene",
            "nodes" : [
                0
            ]
        }
    ],
    "nodes" : [
        {
            "mesh" : 0,
            "name" : "Cube",
            "scale" : [
                0.75,
                0.75,
                0.75
            ],
            "translation" : [
                0,
                0.800000011920929,
                0
            ]
        }
    ],
    "meshes" : [
        {
            "name" : "Cube.001",
            "primitives" : [
                {
                    "attributes" : {
                        "POSITION" : 0,
                        "NORMAL" : 1,
                        "TEXCOORD_0" : 2
                    },
                    "indices" : 3
                }
            ]
        }
    ],
    "accessors" : [
        {
            "bufferView" : 0,
            "componentType" : 5126,
            "count" : 162,
            "max" : [
                1.3999998569488525,
                1,
                1.7999999523162842
            ],
            "min" : [
                -1.399999976158142,
                -1,
                -1.7999999523162842
            ],
            "type" : "VEC3"
        },
        {
            "bufferView" : 1,
            "componentType" : 5126,
            "count" : 162,
            "type" : "VEC3"
        },
        {
            "bufferView" : 2,
            "componentType" : 5126,
            "count" : 162,
            "type" : "VEC2"
        },
        {
            "bufferView" : 3,
            "componentType" : 5123,
            "count" : 300,
            "type" : "SCALAR"
        }
    ],
    "bufferViews" : [
        {
            "buffer" : 0,
            "byteLength" : 1944,
            "byteOffset" : 0
        },
        {
            "buffer" : 0,
            "byteLength" : 1944,
            "byteOffset" : 1944
        },
        {
            "buffer" : 0,
            "byteLength" : 1296,
            "byteOffset" : 3888
        },
        {
            "buffer" : 0,
            "byteLength" : 600,
            "byteOffset" : 5184
        }
    ],
    "buffers" : [
        {
            "byteLength" : 5784,
            "uri" : "data:application/octet-stream;base64,"
        }
    ]
}
