{
    "asset" : {
        "generator" : "Khronos glTF Blender I/O v1.7.33",
        "version" : "2.0"
    },
    "scene" : 0,
    "scenes" : [
        {
            "name" : "Scene",
            "nodes" : [
                0,
                1,
                2
            ]
        }
    ],
    "nodes" : [
        {
            "mesh" : 0,
            "name" : "KeyboardBaru",
            "scale" : [
                4.866246223449707,
                0.17865169048309326,
                2.0020201206207275
            ],
            "translation" : [
                0,
                0.24826845526695251,
                0
            ]
        },
        {
            "mesh" : 1,
            "name" : "Plane",
            "scale" : [
                8.822246551513672,
                8.822246551513672,
                8.822246551513672
            ],
            "translation" : [
                0,
                0.04450621455907822,
                0
            ]
        },
        {
            "mesh" : 2,
            "name" : "KeyboardImac",
            "rotation" : [
                0,
                1,
                0,
                -1.6292068494294654e-07
            ],
            "scale" : [
                4.818054676055908,
                0.13093389570713043,
                1.9809424877166748
            ],
            "translation" : [
                0.009200096130371094,
                0.13352632522583008,
                -0.06052064895629883
            ]
        }
    ],
    "materials" : [
        {
            "doubleSided" : true,
            "name" : "Key",
            "pbrMetallicRoughness" : {}
        },
        {
            "doubleSided" : true,
            "name" : "BadanKeyboard",
            "pbrMetallicRoughness" : {}
        },
        {
            "doubleSided" : true,
            "name" : "Laser",
            "pbrMetallicRoughness" : {}
        },
        {
            "doubleSided" : true,
            "name" : "LobangCas",
            "pbrMetallicRoughness" : {}
        },
        {
            "doubleSided" : true,
            "name" : "Hjau",
            "pbrMetallicRoughness" : {}
        },
        {
            "doubleSided" : true,
            "name" : "TextKey",
            "pbrMetallicRoughness" : {
                "baseColorTexture" : {
                    "index" : 0
                },
                "metallicFactor" : 0,
                "roughnessFactor" : 0.5
            }
        },
        {
            "doubleSided" : true,
            "name" : "Lobang",
            "pbrMetallicRoughness" : {}
        }
    ],
    "meshes" : [
        {
            "name" : "Cube.003",
            "primitives" : [
                {
                    "attributes" : {
                        "POSITION" : 0,
                        "NORMAL" : 1,
                        "TEXCOORD_0" : 2
                    },
                    "indices" : 3,
                    "material" : 0
                },
                {
                    "attributes" : {
                        "POSITION" : 4,
                        "NORMAL" : 5,
                        "TEXCOORD_0" : 6
                    },
                    "indices" : 7,
                    "material" : 1
                },
                {
                    "attributes" : {
                        "POSITION" : 8,
                        "NORMAL" : 9,
                        "TEXCOORD_0" : 10
                    },
                    "indices" : 11,
                    "material" : 2
                },
                {
                    "attributes" : {
                        "POSITION" : 12,
                        "NORMAL" : 13,
                        "TEXCOORD_0" : 14
                    },
                    "indices" : 15,
                    "material" : 3
                },
                {
                    "attributes" : {
                        "POSITION" : 16,
                        "NORMAL" : 17,
                        "TEXCOORD_0" : 18
                    },
                    "indices" : 19,
                    "material" : 4
                },
                {
                    "attributes" : {
                        "POSITION" : 20,
                        "NORMAL" : 21,
                        "TEXCOORD_0" : 22
                    },
                    "indices" : 23,
                    "material" : 5
                }
            ]
        },
        {
            "name" : "Plane",
            "primitives" : [
                {
                    "attributes" : {
                        "POSITION" : 24,
                        "NORMAL" : 25
                    },
                    "indices" : 26
                }
            ]
        },
        {
            "name" : "Cube",
            "primitives" : [
                {
                    "attributes" : {
                        "POSITION" : 27,
                        "NORMAL" : 28,
                        "TEXCOORD_0" : 29
                    },
                    "indices" : 30,
                    "material" : 1
                },
                {
                    "attributes" : {
                        "POSITION" : 31,
                        "NORMAL" : 32,
                        "TEXCOORD_0" : 33
                    },
                    "indices" : 34,
                    "material" : 0
                },
                {
                    "attributes" : {
                        "POSITION" : 35,
                        "NORMAL" : 36,
                        "TEXCOORD_0" : 37
                    },
                    "indices" : 38,
                    "material" : 5
                },
                {
                    "attributes" : {
                        "POSITION" : 39,
                        "NORMAL" : 40,
                        "TEXCOORD_0" : 41
                    },
                    "indices" : 42,
                    "material" : 6
                },
                {
                    "attributes" : {
                        "POSITION" : 43,
                        "NORMAL" : 44,
                        "TEXCOORD_0" : 45
                    },
                    "indices" : 46,
                    "material" : 4
                }
            ]
        }
    ],
    "textures" : [
        {
            "sampler" : 0,
            "source" : 0
        }
    ],
    "images" : [
        {
            "bufferView" : 24,
            "mimeType" : "image/jpeg",
            "name" : "MLA22LL"
        }
    ],
    "accessors" : [
        {
            "bufferView" : 0,
            "componentType" : 5126,
            "count" : 14089,
            "max" : [
                0.9852555990219116,
                0.6186236143112183,
                0.9431480765342712
            ],
            "min" : [
                -0.9852555990219116,
                -1.0568671226501465,
                -0.966184139251709
            ],
            "type" : "VEC3"
        },
        {
            "bufferView" : 1,
            "componentType" : 5126,
            "count" : 14089,
            "type" : "VEC3"
        },
        {
            "bufferView" : 2,
            "componentType" : 5126,
            "count" : 14089,
            "type" : "VEC2"
        },
        {
            "bufferView" : 3,
            "componentType" : 5123,
            "count" : 24915,
            "type" : "SCALAR"
        },
        {
            "bufferView" : 4,
            "componentType" : 5126,
            "count" : 355,
            "max" : [
                1,
                0.5401132106781006,
                0.9781802296638489
            ],
            "min" : [
                -1,
                -1,
                -1
            ],
            "type" : "VEC3"
        },
        {
            "bufferView" : 5,
            "componentType" : 5126,
            "count" : 355,
            "type" : "VEC3"
        },
        {
            "bufferView" : 6,
            "componentType" : 5126,
            "count" : 355,
            "type" : "VEC2"
        },
        {
            "bufferView" : 7,
            "componentType" : 5123,
            "count" : 729,
            "type" : "SCALAR"
        },
        {
            "bufferView" : 8,
            "componentType" : 5126,
            "count" : 4,
            "max" : [
                0.9368398189544678,
                -0.08833450078964233,
                0.9781802296638489
            ],
            "min" : [
                0.5090385675430298,
                -0.3715522885322571,
                0.9781802296638489
            ],
            "type" : "VEC3"
        },
        {
            "bufferView" : 9,
            "componentType" : 5126,
            "count" : 4,
            "type" : "VEC3"
        },
        {
            "bufferView" : 10,
            "componentType" : 5126,
            "count" : 4,
            "type" : "VEC2"
        },
        {
            "bufferView" : 11,
            "componentType" : 5123,
            "count" : 6,
            "type" : "SCALAR"
        },
        {
            "bufferView" : 12,
            "componentType" : 5126,
            "count" : 26,
            "max" : [
                0.01931183971464634,
                -0.11921737343072891,
                0.9781802296638489
            ],
            "min" : [
                -0.01931183971464634,
                -0.3406694233417511,
                0.9136534333229065
            ],
            "type" : "VEC3"
        },
        {
            "bufferView" : 13,
            "componentType" : 5126,
            "count" : 26,
            "type" : "VEC3"
        },
        {
            "bufferView" : 14,
            "componentType" : 5126,
            "count" : 26,
            "type" : "VEC2"
        },
        {
            "bufferView" : 15,
            "componentType" : 5123,
            "count" : 48,
            "type" : "SCALAR"
        },
        {
            "bufferView" : 16,
            "componentType" : 5126,
            "count" : 20,
            "max" : [
                -0.9141652584075928,
                -0.091773122549057,
                0.9781802296638489
            ],
            "min" : [
                -0.9367650151252747,
                -0.3681136667728424,
                0.9675807952880859
            ],
            "type" : "VEC3"
        },
        {
            "bufferView" : 17,
            "componentType" : 5126,
            "count" : 20,
            "type" : "VEC3"
        },
        {
            "bufferView" : 18,
            "componentType" : 5126,
            "count" : 20,
            "type" : "VEC2"
        },
        {
            "bufferView" : 19,
            "componentType" : 5123,
            "count" : 30,
            "type" : "SCALAR"
        },
        {
            "bufferView" : 20,
            "componentType" : 5126,
            "count" : 2776,
            "max" : [
                0.982663631439209,
                0.6186236143112183,
                0.9420518279075623
            ],
            "min" : [
                -0.9821838736534119,
                -0.30723389983177185,
                -0.966184139251709
            ],
            "type" : "VEC3"
        },
        {
            "bufferView" : 21,
            "componentType" : 5126,
            "count" : 2776,
            "type" : "VEC3"
        },
        {
            "bufferView" : 22,
            "componentType" : 5126,
            "count" : 2776,
            "type" : "VEC2"
        },
        {
            "bufferView" : 23,
            "componentType" : 5123,
            "count" : 7860,
            "type" : "SCALAR"
        },
        {
            "bufferView" : 25,
            "componentType" : 5126,
            "count" : 4,
            "max" : [
                1,
                0,
                1
            ],
            "min" : [
                -1,
                0,
                -1
            ],
            "type" : "VEC3"
        },
        {
            "bufferView" : 26,
            "componentType" : 5126,
            "count" : 4,
            "type" : "VEC3"
        },
        {
            "bufferView" : 27,
            "componentType" : 5123,
            "count" : 6,
            "type" : "SCALAR"
        },
        {
            "bufferView" : 28,
            "componentType" : 5126,
            "count" : 3385,
            "max" : [
                0.999948263168335,
                0.9524734020233154,
                1
            ],
            "min" : [
                -0.999948263168335,
                -0.9994217157363892,
                -1
            ],
            "type" : "VEC3"
        },
        {
            "bufferView" : 29,
            "componentType" : 5126,
            "count" : 3385,
            "type" : "VEC3"
        },
        {
            "bufferView" : 30,
            "componentType" : 5126,
            "count" : 3385,
            "type" : "VEC2"
        },
        {
            "bufferView" : 31,
            "componentType" : 5123,
            "count" : 20244,
            "type" : "SCALAR"
        },
        {
            "bufferView" : 32,
            "componentType" : 5126,
            "count" : 13880,
            "max" : [
                0.9566569924354553,
                1.0166471004486084,
                0.9007274508476257
            ],
            "min" : [
                -0.9588143229484558,
                -0.3581101894378662,
                -0.8916891813278198
            ],
            "type" : "VEC3"
        },
        {
            "bufferView" : 33,
            "componentType" : 5126,
            "count" : 13880,
            "type" : "VEC3"
        },
        {
            "bufferView" : 34,
            "componentType" : 5126,
            "count" : 13880,
            "type" : "VEC2"
        },
        {
            "bufferView" : 35,
            "componentType" : 5123,
            "count" : 24516,
            "type" : "SCALAR"
        },
        {
            "bufferView" : 36,
            "componentType" : 5126,
            "count" : 2776,
            "max" : [
                0.9566569924354553,
                1.0166471004486084,
                0.8999025821685791
            ],
            "min" : [
                -0.9588143229484558,
                -0.0061081647872924805,
                -0.8916891813278198
            ],
            "type" : "VEC3"
        },
        {
            "bufferView" : 37,
            "componentType" : 5126,
            "count" : 2776,
            "type" : "VEC3"
        },
        {
            "bufferView" : 38,
            "componentType" : 5126,
            "count" : 2776,
            "type" : "VEC2"
        },
        {
            "bufferView" : 39,
            "componentType" : 5123,
            "count" : 7860,
            "type" : "SCALAR"
        },
        {
            "bufferView" : 40,
            "componentType" : 5126,
            "count" : 45,
            "max" : [
                0.11423848569393158,
                0.32668811082839966,
                1
            ],
            "min" : [
                -0.11423849314451218,
                -0.32506370544433594,
                0.9415493607521057
            ],
            "type" : "VEC3"
        },
        {
            "bufferView" : 41,
            "componentType" : 5126,
            "count" : 45,
            "type" : "VEC3"
        },
        {
            "bufferView" : 42,
            "componentType" : 5126,
            "count" : 45,
            "type" : "VEC2"
        },
        {
            "bufferView" : 43,
            "componentType" : 5123,
            "count" : 216,
            "type" : "SCALAR"
        },
        {
            "bufferView" : 44,
            "componentType" : 5126,
            "count" : 24,
            "max" : [
                -0.7737210988998413,
                0.3264824450016022,
                0.9994831085205078
            ],
            "min" : [
                -0.8620373606681824,
                -0.32527294754981995,
                0.9858195781707764
            ],
            "type" : "VEC3"
        },
        {
            "bufferView" : 45,
            "componentType" : 5126,
            "count" : 24,
            "type" : "VEC3"
        },
        {
            "bufferView" : 46,
            "componentType" : 5126,
            "count" : 24,
            "type" : "VEC2"
        },
        {
            "bufferView" : 47,
            "componentType" : 5123,
            "count" : 120,
            "type" : "SCALAR"
        }
    ],
    "bufferViews" : [
        {
            "buffer" : 0,
            "byteLength" : 169068,
            "byteOffset" : 0
        },
        {
            "buffer" : 0,
            "byteLength" : 169068,
            "byteOffset" : 169068
        },
        {
            "buffer" : 0,
            "byteLength" : 112712,
            "byteOffset" : 338136
        },
        {
            "buffer" : 0,
            "byteLength" : 49830,
            "byteOffset" : 450848
        },
        {
            "buffer" : 0,
            "byteLength" : 4260,
            "byteOffset" : 500680
        },
        {
            "buffer" : 0,
            "byteLength" : 4260,
            "byteOffset" : 504940
        },
        {
            "buffer" : 0,
            "byteLength" : 2840,
            "byteOffset" : 509200
        },
        {
            "buffer" : 0,
            "byteLength" : 1458,
            "byteOffset" : 512040
        },
        {
            "buffer" : 0,
            "byteLength" : 48,
            "byteOffset" : 513500
        },
        {
            "buffer" : 0,
            "byteLength" : 48,
            "byteOffset" : 513548
        },
        {
            "buffer" : 0,
            "byteLength" : 32,
            "byteOffset" : 513596
        },
        {
            "buffer" : 0,
            "byteLength" : 12,
            "byteOffset" : 513628
        },
        {
            "buffer" : 0,
            "byteLength" : 312,
            "byteOffset" : 513640
        },
        {
            "buffer" : 0,
            "byteLength" : 312,
            "byteOffset" : 513952
        },
        {
            "buffer" : 0,
            "byteLength" : 208,
            "byteOffset" : 514264
        },
        {
            "buffer" : 0,
            "byteLength" : 96,
            "byteOffset" : 514472
        },
        {
            "buffer" : 0,
            "byteLength" : 240,
            "byteOffset" : 514568
        },
        {
            "buffer" : 0,
            "byteLength" : 240,
            "byteOffset" : 514808
        },
        {
            "buffer" : 0,
            "byteLength" : 160,
            "byteOffset" : 515048
        },
        {
            "buffer" : 0,
            "byteLength" : 60,
            "byteOffset" : 515208
        },
        {
            "buffer" : 0,
            "byteLength" : 33312,
            "byteOffset" : 515268
        },
        {
            "buffer" : 0,
            "byteLength" : 33312,
            "byteOffset" : 548580
        },
        {
            "buffer" : 0,
            "byteLength" : 22208,
            "byteOffset" : 581892
        },
        {
            "buffer" : 0,
            "byteLength" : 15720,
            "byteOffset" : 604100
        },
        {
            "buffer" : 0,
            "byteLength" : 149994,
            "byteOffset" : 619820
        },
        {
            "buffer" : 0,
            "byteLength" : 48,
            "byteOffset" : 769816
        },
        {
            "buffer" : 0,
            "byteLength" : 48,
            "byteOffset" : 769864
        },
        {
            "buffer" : 0,
            "byteLength" : 12,
            "byteOffset" : 769912
        },
        {
            "buffer" : 0,
            "byteLength" : 40620,
            "byteOffset" : 769924
        },
        {
            "buffer" : 0,
            "byteLength" : 40620,
            "byteOffset" : 810544
        },
        {
            "buffer" : 0,
            "byteLength" : 27080,
            "byteOffset" : 851164
        },
        {
            "buffer" : 0,
            "byteLength" : 40488,
            "byteOffset" : 878244
        },
        {
            "buffer" : 0,
            "byteLength" : 166560,
            "byteOffset" : 918732
        },
        {
            "buffer" : 0,
            "byteLength" : 166560,
            "byteOffset" : 1085292
        },
        {
            "buffer" : 0,
            "byteLength" : 111040,
            "byteOffset" : 1251852
        },
        {
            "buffer" : 0,
            "byteLength" : 49032,
            "byteOffset" : 1362892
        },
        {
            "buffer" : 0,
            "byteLength" : 33312,
            "byteOffset" : 1411924
        },
        {
            "buffer" : 0,
            "byteLength" : 33312,
            "byteOffset" : 1445236
        },
        {
            "buffer" : 0,
            "byteLength" : 22208,
            "byteOffset" : 1478548
        },
        {
            "buffer" : 0,
            "byteLength" : 15720,
            "byteOffset" : 1500756
        },
        {
            "buffer" : 0,
            "byteLength" : 540,
            "byteOffset" : 1516476
        },
        {
            "buffer" : 0,
            "byteLength" : 540,
            "byteOffset" : 1517016
        },
        {
            "buffer" : 0,
            "byteLength" : 360,
            "byteOffset" : 1517556
        },
        {
            "buffer" : 0,
            "byteLength" : 432,
            "byteOffset" : 1517916
        },
        {
            "buffer" : 0,
            "byteLength" : 288,
            "byteOffset" : 1518348
        },
        {
            "buffer" : 0,
            "byteLength" : 288,
            "byteOffset" : 1518636
        },
        {
            "buffer" : 0,
            "byteLength" : 192,
            "byteOffset" : 1518924
        },
        {
            "buffer" : 0,
            "byteLength" : 240,
            "byteOffset" : 1519116
        }
    ],
    "samplers" : [
        {
            "magFilter" : 9729,
            "minFilter" : 9987
        }
    ],
    "buffers" : [
        {
            "byteLength" : 1519356,
            "uri" : "data:application/octet-stream;base64,"
        }
    ]
}
