{
    "asset" : {
        "generator" : "Khronos glTF Blender I/O v1.7.33",
        "version" : "2.0"
    },
    "scene" : 0,
    "scenes" : [
        {
            "name" : "Scene",
            "nodes" : [
                0,
                1
            ]
        }
    ],
    "nodes" : [
        {
            "mesh" : 0,
            "name" : "Polymer",
            "rotation" : [
                0.7071068286895752,
                0,
                0,
                0.7071067094802856
            ],
            "scale" : [
                0.03959546983242035,
                0.03959546983242035,
                0.03959546983242035
            ]
        },
        {
            "mesh" : 1,
            "name" : "Metal",
            "rotation" : [
                0.7071068286895752,
                0,
                0,
                0.7071067094802856
            ],
            "scale" : [
                0.03959546983242035,
                0.03959546983242035,
                0.03959546983242035
            ]
        }
    ],
    "materials" : [
        {
            "doubleSided" : true,
            "name" : "Polymer",
            "pbrMetallicRoughness" : {
                "baseColorFactor" : [
                    0.03521750494837761,
                    0.03521750494837761,
                    0.03521750494837761,
                    1
                ],
                "metallicFactor" : 0,
                "roughnessFactor" : 0.5
            }
        },
        {
            "doubleSided" : true,
            "name" : "Metal",
            "pbrMetallicRoughness" : {
                "baseColorFactor" : [
                    0.7727707028388977,
                    0.7662690281867981,
                    0.800000011920929,
                    1
                ],
                "metallicFactor" : 0,
                "roughnessFactor" : 0.5
            }
        }
    ],
    "meshes" : [
        {
            "name" : "Polymer",
            "primitives" : [
                {
                    "attributes" : {
                        "POSITION" : 0,
                        "NORMAL" : 1,
                        "TEXCOORD_0" : 2
                    },
                    "indices" : 3,
                    "material" : 0
                }
            ]
        },
        {
            "name" : "Metal",
            "primitives" : [
                {
                    "attributes" : {
                        "POSITION" : 4,
                        "NORMAL" : 5,
                        "TEXCOORD_0" : 6
                    },
                    "indices" : 7,
                    "material" : 1
                }
            ]
        }
    ],
    "accessors" : [
        {
            "bufferView" : 0,
            "componentType" : 5126,
            "count" : 474,
            "max" : [
                7.9710001945495605,
                7.9710001945495605,
                -53.660099029541016
            ],
            "min" : [
                -7.9710001945495605,
                -85.9114990234375,
                -152.3730926513672
            ],
            "type" : "VEC3"
        },
        {
            "bufferView" : 1,
            "componentType" : 5126,
            "count" : 474,
            "type" : "VEC3"
        },
        {
            "bufferView" : 2,
            "componentType" : 5126,
            "count" : 474,
            "type" : "VEC2"
        },
        {
            "bufferView" : 3,
            "componentType" : 5123,
            "count" : 2271,
            "type" : "SCALAR"
        },
        {
            "bufferView" : 4,
            "componentType" : 5126,
            "count" : 1693,
            "max" : [
                40,
                60.741600036621094,
                3.202199935913086
            ],
            "min" : [
                -40,
                -53.38880157470703,
                -136.39889526367188
            ],
            "type" : "VEC3"
        },
        {
            "bufferView" : 5,
            "componentType" : 5126,
            "count" : 1693,
            "type" : "VEC3"
        },
        {
            "bufferView" : 6,
            "componentType" : 5126,
            "count" : 1693,
            "type" : "VEC2"
        },
        {
            "bufferView" : 7,
            "componentType" : 5123,
            "count" : 4311,
            "type" : "SCALAR"
        }
    ],
    "bufferViews" : [
        {
            "buffer" : 0,
            "byteLength" : 5688,
            "byteOffset" : 0
        },
        {
            "buffer" : 0,
            "byteLength" : 5688,
            "byteOffset" : 5688
        },
        {
            "buffer" : 0,
            "byteLength" : 3792,
            "byteOffset" : 11376
        },
        {
            "buffer" : 0,
            "byteLength" : 4542,
            "byteOffset" : 15168
        },
        {
            "buffer" : 0,
            "byteLength" : 20316,
            "byteOffset" : 19712
        },
        {
            "buffer" : 0,
            "byteLength" : 20316,
            "byteOffset" : 40028
        },
        {
            "buffer" : 0,
            "byteLength" : 13544,
            "byteOffset" : 60344
        },
        {
            "buffer" : 0,
            "byteLength" : 8622,
            "byteOffset" : 73888
        }
    ],
    "buffers" : [
        {
            "byteLength" : 82512,
            "uri" : "data:application/octet-stream;base64,"
        }
    ]
}
