{
    "asset" : {
        "generator" : "Khronos glTF Blender I/O v1.7.33",
        "version" : "2.0"
    },
    "scene" : 0,
    "scenes" : [
        {
            "name" : "Scene",
            "nodes" : [
                0
            ]
        }
    ],
    "nodes" : [
        {
            "mesh" : 0,
            "name" : "Cube",
            "scale" : [
                0.14999985694885254,
                1.249999761581421,
                0.8499999642372131
            ],
            "translation" : [
                0,
                1.25,
                0
            ]
        }
    ],
    "materials" : [
        {
            "doubleSided" : true,
            "name" : "Material",
            "pbrMetallicRoughness" : {
                "baseColorFactor" : [
                    0.800000011920929,
                    0.800000011920929,
                    0.800000011920929,
                    1
                ],
                "metallicFactor" : 0,
                "roughnessFactor" : 0.4000000059604645
            }
        }
    ],
    "meshes" : [
        {
            "name" : "Cube",
            "primitives" : [
                {
                    "attributes" : {
                        "POSITION" : 0,
                        "NORMAL" : 1,
                        "TEXCOORD_0" : 2
                    },
                    "indices" : 3,
                    "material" : 0
                }
            ]
        }
    ],
    "accessors" : [
        {
            "bufferView" : 0,
            "componentType" : 5126,
            "count" : 218,
            "max" : [
                1.2000000476837158,
                1,
                1.399999976158142
            ],
            "min" : [
                -1.2000000476837158,
                -1,
                -1
            ],
            "type" : "VEC3"
        },
        {
            "bufferView" : 1,
            "componentType" : 5126,
            "count" : 218,
            "type" : "VEC3"
        },
        {
            "bufferView" : 2,
            "componentType" : 5126,
            "count" : 218,
            "type" : "VEC2"
        },
        {
            "bufferView" : 3,
            "componentType" : 5123,
            "count" : 444,
            "type" : "SCALAR"
        }
    ],
    "bufferViews" : [
        {
            "buffer" : 0,
            "byteLength" : 2616,
            "byteOffset" : 0
        },
        {
            "buffer" : 0,
            "byteLength" : 2616,
            "byteOffset" : 2616
        },
        {
            "buffer" : 0,
            "byteLength" : 1744,
            "byteOffset" : 5232
        },
        {
            "buffer" : 0,
            "byteLength" : 888,
            "byteOffset" : 6976
        }
    ],
    "buffers" : [
        {
            "byteLength" : 7864,
            "uri" : "data:application/octet-stream;base64,"
        }
    ]
}
