{
    "asset" : {
        "generator" : "Khronos glTF Blender I/O v1.7.33",
        "version" : "2.0"
    },
    "scene" : 0,
    "scenes" : [
        {
            "name" : "Scene",
            "nodes" : [
                0
            ]
        }
    ],
    "nodes" : [
        {
            "mesh" : 0,
            "name" : "Sphere",
            "scale" : [
                0.21686767041683197,
                0.22562932968139648,
                0.18248291313648224
            ],
            "translation" : [
                0,
                0.507287323474884,
                0
            ]
        }
    ],
    "meshes" : [
        {
            "name" : "Sphere",
            "primitives" : [
                {
                    "attributes" : {
                        "POSITION" : 0,
                        "NORMAL" : 1,
                        "TEXCOORD_0" : 2
                    },
                    "indices" : 3
                }
            ]
        }
    ],
    "accessors" : [
        {
            "bufferView" : 0,
            "componentType" : 5126,
            "count" : 1984,
            "max" : [
                1.8725345134735107,
                2.0080296993255615,
                2.681455135345459
            ],
            "min" : [
                -2.738572597503662,
                -2.424018383026123,
                -2.7985100746154785
            ],
            "type" : "VEC3"
        },
        {
            "bufferView" : 1,
            "componentType" : 5126,
            "count" : 1984,
            "type" : "VEC3"
        },
        {
            "bufferView" : 2,
            "componentType" : 5126,
            "count" : 1984,
            "type" : "VEC2"
        },
        {
            "bufferView" : 3,
            "componentType" : 5123,
            "count" : 2880,
            "type" : "SCALAR"
        }
    ],
    "bufferViews" : [
        {
            "buffer" : 0,
            "byteLength" : 23808,
            "byteOffset" : 0
        },
        {
            "buffer" : 0,
            "byteLength" : 23808,
            "byteOffset" : 23808
        },
        {
            "buffer" : 0,
            "byteLength" : 15872,
            "byteOffset" : 47616
        },
        {
            "buffer" : 0,
            "byteLength" : 5760,
            "byteOffset" : 63488
        }
    ],
    "buffers" : [
        {
            "byteLength" : 69248,
            "uri" : "data:application/octet-stream;base64,"
        }
    ]
}
